<svg width="77" height="76" viewBox="0 0 77 76" fill="none" xmlns="http://www.w3.org/2000/svg">
<path d="M44.7945 19.1923L44.7945 35.8077C44.7941 36.2972 44.5994 36.7665 44.2533 37.1126C43.9072 37.4587 43.4379 37.6534 42.9484 37.6539L39.2561 37.6539C38.7666 37.6534 38.2973 37.4587 37.9512 37.1126C37.6051 36.7665 37.4104 36.2972 37.4099 35.8077L37.4099 19.1923C37.4104 18.7028 37.6051 18.2335 37.9512 17.8874C38.2973 17.5413 38.7666 17.3467 39.2561 17.3462L42.9484 17.3462C43.4379 17.3467 43.9072 17.5413 44.2533 17.8874C44.5994 18.2335 44.7941 18.7028 44.7945 19.1923ZM39.2561 35.8077L42.9484 35.8077L42.9484 19.1923L39.2561 19.1923L39.2561 35.8077ZM39.2561 19.1923L39.2561 35.8077C39.2556 36.2972 39.0609 36.7665 38.7148 37.1126C38.3687 37.4587 37.8994 37.6533 37.4099 37.6538L33.7176 37.6538C33.2281 37.6533 32.7589 37.4587 32.4127 37.1126C32.0666 36.7665 31.872 36.2972 31.8715 35.8077L31.8715 19.1923C31.872 18.7028 32.0666 18.2335 32.4127 17.8874C32.7588 17.5413 33.2281 17.3466 33.7176 17.3461L37.4099 17.3461C37.8994 17.3466 38.3687 17.5413 38.7148 17.8874C39.0609 18.2335 39.2556 18.7028 39.2561 19.1923ZM33.7176 35.8077L37.4099 35.8077L37.4099 19.1923L33.7176 19.1923L33.7176 35.8077ZM33.7176 19.1923L33.7176 35.8077C33.7171 36.2972 33.5225 36.7665 33.1764 37.1126C32.8302 37.4587 32.3609 37.6533 31.8715 37.6538L28.1792 37.6538C27.6897 37.6533 27.2204 37.4587 26.8743 37.1126C26.5282 36.7665 26.3335 36.2972 26.333 35.8077L26.333 19.1923C26.3335 18.7028 26.5282 18.2335 26.8743 17.8874C27.2204 17.5413 27.6897 17.3466 28.1792 17.3461L31.8715 17.3461C32.3609 17.3466 32.8302 17.5413 33.1764 17.8874C33.5225 18.2335 33.7171 18.7028 33.7176 19.1923ZM28.1792 35.8077L31.8715 35.8077L31.8715 19.1923L28.1792 19.1923L28.1792 35.8077Z" fill="#CDCDCD"/>
<path d="M50.333 19.1925L50.333 35.8079C50.3325 36.2974 50.1379 36.7667 49.7917 37.1128C49.4456 37.4589 48.9763 37.6536 48.4869 37.6541L44.7945 37.6541C44.3051 37.6536 43.8358 37.4589 43.4897 37.1128C43.1435 36.7667 42.9489 36.2972 42.9484 35.8077L42.9484 19.1923C42.9489 18.7028 43.1435 18.2337 43.4897 17.8876C43.8358 17.5415 44.3051 17.3469 44.7945 17.3464L48.4869 17.3464C48.9763 17.3469 49.4456 17.5415 49.7917 17.8876C50.1379 18.2337 50.3325 18.703 50.333 19.1925ZM44.7945 35.8077L48.4869 35.8079L48.4869 19.1925L44.7945 19.1923L44.7945 35.8077Z" fill="#CDCDCD"/>
<path d="M19.7002 47.5059H22.5303C23.779 47.5059 24.7178 47.6927 25.3467 48.0664C25.9756 48.4401 26.29 49.0758 26.29 49.9736C26.29 50.361 26.2148 50.7096 26.0645 51.0195C25.9186 51.3249 25.7044 51.5778 25.4219 51.7783C25.1393 51.9788 24.7907 52.1178 24.376 52.1953V52.2637C24.8135 52.332 25.2008 52.4574 25.5381 52.6396C25.8753 52.8219 26.1396 53.0771 26.3311 53.4053C26.5225 53.7334 26.6182 54.1504 26.6182 54.6562C26.6182 55.2715 26.4746 55.791 26.1875 56.2148C25.9049 56.6387 25.5039 56.96 24.9844 57.1787C24.4648 57.3929 23.8496 57.5 23.1387 57.5H19.7002V47.5059ZM20.8623 51.792H22.7764C23.6468 51.792 24.2484 51.6484 24.5811 51.3613C24.9183 51.0742 25.0869 50.6549 25.0869 50.1035C25.0869 49.5339 24.8864 49.1237 24.4854 48.873C24.0889 48.6224 23.4554 48.4971 22.585 48.4971H20.8623V51.792ZM20.8623 52.7695V56.5088H22.9404C23.8291 56.5088 24.458 56.3356 24.8271 55.9893C25.1963 55.6383 25.3809 55.1667 25.3809 54.5742C25.3809 54.196 25.2965 53.8724 25.1279 53.6035C24.9639 53.3346 24.695 53.1296 24.3213 52.9883C23.9521 52.8424 23.4577 52.7695 22.8379 52.7695H20.8623ZM35.04 53.7402C35.04 54.3555 34.9603 54.9046 34.8008 55.3877C34.6413 55.8708 34.4111 56.2786 34.1104 56.6113C33.8096 56.944 33.445 57.1992 33.0166 57.377C32.5928 57.5501 32.112 57.6367 31.5742 57.6367C31.0729 57.6367 30.6126 57.5501 30.1934 57.377C29.7786 57.1992 29.4186 56.944 29.1133 56.6113C28.8125 56.2786 28.5778 55.8708 28.4092 55.3877C28.2451 54.9046 28.1631 54.3555 28.1631 53.7402C28.1631 52.9199 28.3021 52.2227 28.5801 51.6484C28.8581 51.0697 29.2546 50.6299 29.7695 50.3291C30.2891 50.0238 30.9066 49.8711 31.6221 49.8711C32.3057 49.8711 32.9027 50.0238 33.4131 50.3291C33.9281 50.6344 34.3268 51.0765 34.6094 51.6553C34.8965 52.2295 35.04 52.9245 35.04 53.7402ZM29.3389 53.7402C29.3389 54.3418 29.4186 54.8636 29.5781 55.3057C29.7376 55.7477 29.9837 56.0895 30.3164 56.3311C30.6491 56.5726 31.0775 56.6934 31.6016 56.6934C32.1211 56.6934 32.5472 56.5726 32.8799 56.3311C33.2171 56.0895 33.4655 55.7477 33.625 55.3057C33.7845 54.8636 33.8643 54.3418 33.8643 53.7402C33.8643 53.1432 33.7845 52.6283 33.625 52.1953C33.4655 51.7578 33.2194 51.4206 32.8867 51.1836C32.554 50.9466 32.1234 50.8281 31.5947 50.8281C30.8154 50.8281 30.2435 51.0856 29.8789 51.6006C29.5189 52.1156 29.3389 52.8288 29.3389 53.7402ZM39.8047 49.8848C40.6979 49.8848 41.361 50.0853 41.7939 50.4863C42.2269 50.8874 42.4434 51.5277 42.4434 52.4072V57.5H41.6162L41.3975 56.3926H41.3428C41.1331 56.666 40.9144 56.8962 40.6865 57.083C40.4587 57.2653 40.1943 57.4043 39.8936 57.5C39.5973 57.5911 39.2327 57.6367 38.7998 57.6367C38.3441 57.6367 37.9385 57.557 37.583 57.3975C37.2321 57.238 36.9541 56.9964 36.749 56.6729C36.5485 56.3493 36.4482 55.9391 36.4482 55.4424C36.4482 54.695 36.7445 54.1208 37.3369 53.7197C37.9294 53.3187 38.8317 53.0999 40.0439 53.0635L41.3359 53.0088V52.5508C41.3359 51.9036 41.1969 51.4502 40.9189 51.1904C40.641 50.9307 40.249 50.8008 39.7432 50.8008C39.3512 50.8008 38.9775 50.8577 38.6221 50.9717C38.2666 51.0856 37.9294 51.2201 37.6104 51.375L37.2617 50.5137C37.599 50.3405 37.9863 50.1924 38.4238 50.0693C38.8613 49.9463 39.3216 49.8848 39.8047 49.8848ZM41.3223 53.8086L40.1807 53.8564C39.2464 53.8929 38.5879 54.0456 38.2051 54.3145C37.8223 54.5833 37.6309 54.9639 37.6309 55.4561C37.6309 55.8844 37.7607 56.2012 38.0205 56.4062C38.2803 56.6113 38.6243 56.7139 39.0527 56.7139C39.7181 56.7139 40.2627 56.5293 40.6865 56.1602C41.1104 55.791 41.3223 55.2373 41.3223 54.499V53.8086ZM48.1855 49.8711C48.3359 49.8711 48.4932 49.8802 48.6572 49.8984C48.8213 49.9121 48.9671 49.9326 49.0947 49.96L48.9512 51.0127C48.8281 50.9808 48.6914 50.9557 48.541 50.9375C48.3906 50.9193 48.2493 50.9102 48.1172 50.9102C47.8164 50.9102 47.5316 50.9717 47.2627 51.0947C46.9984 51.2132 46.766 51.3864 46.5654 51.6143C46.3649 51.8376 46.2077 52.1087 46.0938 52.4277C45.9798 52.7422 45.9229 53.0931 45.9229 53.4805V57.5H44.7812V50.0078H45.7246L45.8477 51.3887H45.8955C46.0505 51.1107 46.2373 50.8577 46.4561 50.6299C46.6748 50.3975 46.9277 50.2129 47.2148 50.0762C47.5065 49.9395 47.8301 49.8711 48.1855 49.8711ZM53.1758 57.6367C52.2279 57.6367 51.4759 57.3132 50.9199 56.666C50.3685 56.0189 50.0928 55.0573 50.0928 53.7812C50.0928 52.4915 50.3753 51.5186 50.9404 50.8623C51.5055 50.2015 52.2575 49.8711 53.1963 49.8711C53.5928 49.8711 53.9391 49.9235 54.2354 50.0283C54.5316 50.1331 54.7868 50.2744 55.001 50.4521C55.2152 50.6253 55.3952 50.8236 55.541 51.0469H55.623C55.6048 50.9056 55.5866 50.7119 55.5684 50.4658C55.5501 50.2197 55.541 50.0192 55.541 49.8643V46.8633H56.6758V57.5H55.7598L55.5889 56.4336H55.541C55.3997 56.6569 55.2197 56.8597 55.001 57.042C54.7868 57.2243 54.5293 57.3701 54.2285 57.4795C53.9323 57.5843 53.5814 57.6367 53.1758 57.6367ZM53.3535 56.6934C54.1556 56.6934 54.723 56.4655 55.0557 56.0098C55.3883 55.554 55.5547 54.8773 55.5547 53.9795V53.7744C55.5547 52.8219 55.3952 52.0905 55.0762 51.5801C54.7617 51.0697 54.1875 50.8145 53.3535 50.8145C52.6562 50.8145 52.1344 51.0833 51.7881 51.6211C51.4417 52.1543 51.2686 52.8835 51.2686 53.8086C51.2686 54.7292 51.4395 55.4401 51.7812 55.9414C52.1276 56.4427 52.6517 56.6934 53.3535 56.6934Z" fill="#CDCDCD"/>
</svg>
