<svg width="25" height="25" viewBox="0 0 25 25" fill="none" xmlns="http://www.w3.org/2000/svg">
<path d="M18.7945 4.1922L18.7945 20.8076C18.7941 21.2971 18.5994 21.7664 18.2533 22.1125C17.9072 22.4586 17.4379 22.6532 16.9484 22.6537L13.2561 22.6537C12.7666 22.6532 12.2973 22.4586 11.9512 22.1125C11.6051 21.7664 11.4104 21.2971 11.4099 20.8076L11.4099 4.1922C11.4104 3.70271 11.6051 3.23342 11.9512 2.88731C12.2973 2.54119 12.7666 2.34653 13.2561 2.34604L16.9484 2.34604C17.4379 2.34653 17.9072 2.54119 18.2533 2.88731C18.5994 3.23342 18.7941 3.70271 18.7945 4.1922ZM13.2561 20.8076L16.9484 20.8076L16.9484 4.1922L13.2561 4.1922L13.2561 20.8076ZM13.2561 4.1922L13.2561 20.8076C13.2556 21.2971 13.0609 21.7663 12.7148 22.1124C12.3687 22.4586 11.8994 22.6532 11.4099 22.6537L7.71762 22.6537C7.22814 22.6532 6.75885 22.4586 6.41274 22.1124C6.06662 21.7663 5.87196 21.297 5.87147 20.8076L5.87147 4.19218C5.87196 3.7027 6.06662 3.2334 6.41273 2.88729C6.75885 2.54117 7.22814 2.34651 7.71762 2.34602L11.4099 2.34602C11.8994 2.34651 12.3687 2.54117 12.7148 2.88729C13.0609 3.2334 13.2556 3.70271 13.2561 4.1922ZM7.71762 20.8076L11.4099 20.8076L11.4099 4.1922L7.71762 4.19218L7.71762 20.8076ZM7.71762 4.19218L7.71762 20.8076C7.71713 21.297 7.52247 21.7663 7.17636 22.1124C6.83024 22.4586 6.36095 22.6532 5.87147 22.6537L2.17916 22.6537C1.68968 22.6532 1.22039 22.4586 0.874273 22.1124C0.528158 21.7663 0.333497 21.297 0.333008 20.8076L0.333007 4.19218C0.333496 3.7027 0.528158 3.2334 0.874273 2.88729C1.22039 2.54117 1.68968 2.34651 2.17916 2.34602L5.87147 2.34602C6.36095 2.34651 6.83024 2.54117 7.17636 2.88729C7.52247 3.2334 7.71713 3.7027 7.71762 4.19218ZM2.17916 20.8076L5.87147 20.8076L5.87147 4.19218L2.17916 4.19218L2.17916 20.8076Z" fill="#CDCDCD"/>
<path d="M24.333 4.1924L24.333 20.8078C24.3325 21.2973 24.1379 21.7665 23.7917 22.1127C23.4456 22.4588 22.9763 22.6534 22.4869 22.6539L18.7945 22.6539C18.3051 22.6534 17.8358 22.4588 17.4897 22.1127C17.1435 21.7665 16.9489 21.2971 16.9484 20.8076L16.9484 4.1922C16.9489 3.70271 17.1435 3.23363 17.4897 2.88751C17.8358 2.5414 18.3051 2.34674 18.7945 2.34625L22.4869 2.34625C22.9763 2.34674 23.4456 2.5414 23.7917 2.88751C24.1379 3.23363 24.3325 3.70292 24.333 4.1924ZM18.7945 20.8076L22.4869 20.8078L22.4869 4.1924L18.7945 4.1922L18.7945 20.8076Z" fill="#CDCDCD"/>
</svg>
