<svg width="25" height="25" viewBox="0 0 25 25" fill="none" xmlns="http://www.w3.org/2000/svg">
<mask id="mask0_184607_4591" style="mask-type:alpha" maskUnits="userSpaceOnUse" x="0" y="0" width="25" height="25">
<rect x="0.666992" y="0.5" width="24" height="24" fill="#D9D9D9"/>
</mask>
<g mask="url(#mask0_184607_4591)">
<path d="M3.00853 24.5151C2.3646 24.5151 1.81337 24.2858 1.35482 23.8273C0.896267 23.3687 0.666992 22.8175 0.666992 22.1735V5.7828C0.666992 5.13888 0.896267 4.58764 1.35482 4.12909C1.81337 3.67054 2.3646 3.44126 3.00853 3.44126H13.4576L11.1161 5.7828H3.00853V22.1735H19.3993V14.0367L21.7408 11.6952V22.1735C21.7408 22.8175 21.5115 23.3687 21.053 23.8273C20.5944 24.2858 20.0432 24.5151 19.3993 24.5151H3.00853ZM16.0919 4.11446L17.7602 5.75353L10.0331 13.4806V15.1489H11.6722L19.4285 7.3926L21.0969 9.03168L13.3405 16.788C13.1259 17.0027 12.8771 17.1734 12.5942 17.3002C12.3112 17.4271 12.0137 17.4905 11.7015 17.4905H8.86236C8.53065 17.4905 8.25259 17.3783 8.02819 17.1539C7.80379 16.9295 7.6916 16.6514 7.6916 16.3197V13.4806C7.6916 13.1684 7.75013 12.8708 7.86721 12.5879C7.98429 12.305 8.15015 12.0562 8.36479 11.8415L16.0919 4.11446ZM21.0969 9.03168L16.0919 4.11446L19.0188 1.18754C19.4871 0.71923 20.0481 0.485077 20.7017 0.485077C21.3554 0.485077 21.9067 0.71923 22.3555 1.18754L23.9945 2.85588C24.4433 3.30468 24.6677 3.85103 24.6677 4.49496C24.6677 5.13888 24.4433 5.68524 23.9945 6.13403L21.0969 9.03168Z" fill="#CDCDCD"/>
</g>
</svg>
