<svg width="22" height="23" viewBox="0 0 22 23" fill="none" xmlns="http://www.w3.org/2000/svg">
<path d="M20 0.500031H2C0.895431 0.500031 0 1.39651 0 2.50108C0 2.52942 0 2.54931 0 2.5592V20.5592C0 21.6311 0.869976 22.5 1.94187 22.5C1.97009 22.5 1.98998 22.5 1.99999 22.5H20C20.01 22.5 20.0299 22.5 20.0581 22.5C21.13 22.5 22 21.6311 22 20.5592V2.55918C22 2.54928 22 2.5294 22 2.50108C22 1.39651 21.1046 0.500031 20 0.500031ZM13 20.5592H2V12.5592H13V20.5592ZM13 10.5592H2V2.5592L13 2.55918V10.5592ZM20 20.5592H15V2.5592H20V20.5592Z" fill="#CDCDCD"/>
</svg>
