<svg width="24" height="25" viewBox="0 0 24 25" fill="none" xmlns="http://www.w3.org/2000/svg">
<mask id="mask0_184607_4597" style="mask-type:alpha" maskUnits="userSpaceOnUse" x="0" y="0" width="24" height="25">
<rect y="0.5" width="24" height="24" fill="#D9D9D9"/>
</mask>
<g mask="url(#mask0_184607_4597)">
<path d="M12.0002 19.6999C10.8802 19.6999 9.8102 19.8749 8.7902 20.2249C7.7702 20.5749 6.8402 21.0999 6.0002 21.7999V22.0999H18.0002V21.7999C17.1602 21.0999 16.2302 20.5749 15.2102 20.2249C14.1902 19.8749 13.1202 19.6999 12.0002 19.6999ZM3.6002 20.7199C4.6802 19.6599 5.9352 18.8249 7.3652 18.2149C8.7952 17.6049 10.3402 17.2999 12.0002 17.2999C13.6602 17.2999 15.2052 17.6049 16.6352 18.2149C18.0652 18.8249 19.3202 19.6599 20.4002 20.7199V5.29991H3.6002V20.7199ZM12.0002 14.8999C10.8402 14.8999 9.8502 14.4899 9.0302 13.6699C8.2102 12.8499 7.8002 11.8599 7.8002 10.6999C7.8002 9.53991 8.2102 8.54991 9.0302 7.72991C9.8502 6.90991 10.8402 6.49991 12.0002 6.49991C13.1602 6.49991 14.1502 6.90991 14.9702 7.72991C15.7902 8.54991 16.2002 9.53991 16.2002 10.6999C16.2002 11.8599 15.7902 12.8499 14.9702 13.6699C14.1502 14.4899 13.1602 14.8999 12.0002 14.8999ZM12.0002 12.4999C12.5002 12.4999 12.9252 12.3249 13.2752 11.9749C13.6252 11.6249 13.8002 11.1999 13.8002 10.6999C13.8002 10.1999 13.6252 9.77491 13.2752 9.42491C12.9252 9.07491 12.5002 8.89991 12.0002 8.89991C11.5002 8.89991 11.0752 9.07491 10.7252 9.42491C10.3752 9.77491 10.2002 10.1999 10.2002 10.6999C10.2002 11.1999 10.3752 11.6249 10.7252 11.9749C11.0752 12.3249 11.5002 12.4999 12.0002 12.4999ZM3.6002 24.4999C2.9402 24.4999 2.3752 24.2649 1.9052 23.7949C1.4352 23.3249 1.2002 22.7599 1.2002 22.0999V5.29991C1.2002 4.63991 1.4352 4.07491 1.9052 3.60491C2.3752 3.13491 2.9402 2.89991 3.6002 2.89991H4.8002V1.69991C4.8002 1.03717 5.33745 0.499908 6.0002 0.499908C6.66294 0.499908 7.2002 1.03717 7.2002 1.69991V2.89991H16.8002V1.69991C16.8002 1.03717 17.3375 0.499908 18.0002 0.499908C18.6629 0.499908 19.2002 1.03717 19.2002 1.69991V2.89991H20.4002C21.0602 2.89991 21.6252 3.13491 22.0952 3.60491C22.5652 4.07491 22.8002 4.63991 22.8002 5.29991V22.0999C22.8002 22.7599 22.5652 23.3249 22.0952 23.7949C21.6252 24.2649 21.0602 24.4999 20.4002 24.4999H3.6002Z" fill="#CDCDCD"/>
</g>
</svg>
