<svg width="17" height="13" viewBox="0 0 17 13" fill="none" xmlns="http://www.w3.org/2000/svg">
<g clip-path="url(#clip0_169_5)">
<mask id="mask0_169_5" style="mask-type:luminance" maskUnits="userSpaceOnUse" x="0" y="0" width="17" height="13">
<path d="M0 12.5L17 12.5V0.5L0 0.5V12.5Z" fill="white"/>
</mask>
<g mask="url(#mask0_169_5)">
<path d="M8.50001 5.25476C8.69944 5.25443 8.89371 5.31633 9.05426 5.43137L16.6228 10.8653C16.7212 10.9361 16.8044 11.025 16.8675 11.127C16.9307 11.2291 16.9725 11.3422 16.9907 11.4599C17.0273 11.6977 16.9654 11.9399 16.8184 12.1333C16.6714 12.3266 16.4514 12.4553 16.2068 12.4909C15.9623 12.5266 15.7131 12.4664 15.5143 12.3234L8.50001 7.2925L1.48576 12.3234C1.38729 12.3942 1.27544 12.4454 1.15661 12.4742C1.03778 12.5029 0.914292 12.5086 0.793194 12.4909C0.672095 12.4733 0.555762 12.4326 0.450835 12.3712C0.345906 12.3099 0.254437 12.229 0.181653 12.1333C0.108869 12.0375 0.0561912 11.9288 0.0266312 11.8132C-0.00292891 11.6977 -0.008794 11.5776 0.00936969 11.4599C0.0275353 11.3422 0.069373 11.2291 0.132499 11.127C0.195623 11.025 0.278796 10.9361 0.377271 10.8653L7.94576 5.43137C8.1063 5.31633 8.30058 5.25443 8.50001 5.25476Z" fill="white"/>
<path d="M8.50001 0.499879C8.69944 0.499544 8.89371 0.561447 9.05426 0.676482L16.6228 6.11045C16.8216 6.25336 16.954 6.46724 16.9907 6.70502C17.0273 6.9428 16.9654 7.18501 16.8184 7.37837C16.6714 7.57173 16.4514 7.70039 16.2068 7.73606C15.9623 7.77173 15.7131 7.71147 15.5143 7.56856L8.50001 2.53761L1.48576 7.56856C1.28688 7.71147 1.03776 7.77173 0.793198 7.73606C0.548629 7.70039 0.328652 7.57173 0.181657 7.37837C0.0346613 7.18501 -0.0273103 6.9428 0.0093737 6.70502C0.0460596 6.46723 0.178397 6.25336 0.377275 6.11044L7.94576 0.676482C8.1063 0.561447 8.30058 0.499544 8.50001 0.499879Z" fill="white"/>
</g>
</g>
<defs>
<clipPath id="clip0_169_5">
<rect width="17" height="13" fill="white"/>
</clipPath>
</defs>
</svg>
