<svg width="22" height="20" viewBox="0 0 22 20" fill="none" xmlns="http://www.w3.org/2000/svg">
<path d="M15.1 10.8001L13.65 9.3501C13.8 8.56676 13.575 7.83343 12.975 7.1501C12.375 6.46676 11.6 6.2001 10.65 6.3501L9.20005 4.9001C9.48338 4.76676 9.77088 4.66676 10.0625 4.6001C10.3542 4.53343 10.6667 4.5001 11 4.5001C12.25 4.5001 13.3125 4.9376 14.1875 5.8126C15.0625 6.6876 15.5 7.7501 15.5 9.0001C15.5 9.33343 15.4667 9.64593 15.4 9.9376C15.3334 10.2293 15.2334 10.5168 15.1 10.8001ZM18.3 13.9501L16.85 12.5501C17.4834 12.0668 18.0459 11.5376 18.5375 10.9626C19.0292 10.3876 19.45 9.73343 19.8 9.0001C18.9667 7.31676 17.7709 5.97926 16.2125 4.9876C14.6542 3.99593 12.9167 3.5001 11 3.5001C10.5167 3.5001 10.0417 3.53343 9.57505 3.6001C9.10838 3.66676 8.65005 3.76676 8.20005 3.9001L6.65005 2.3501C7.33338 2.06676 8.03338 1.85426 8.75005 1.7126C9.46671 1.57093 10.2167 1.5001 11 1.5001C13.3834 1.5001 15.525 2.12926 17.425 3.3876C19.325 4.64593 20.75 6.28343 21.7 8.3001C21.75 8.38343 21.7834 8.4876 21.8 8.6126C21.8167 8.7376 21.825 8.86677 21.825 9.0001C21.825 9.13343 21.8125 9.2626 21.7875 9.3876C21.7626 9.5126 21.7334 9.61677 21.7 9.7001C21.3167 10.5501 20.8375 11.3334 20.2625 12.0501C19.6875 12.7668 19.0334 13.4001 18.3 13.9501ZM18.1 19.4001L14.6 15.9501C14.0167 16.1334 13.4292 16.2709 12.8375 16.3626C12.2459 16.4543 11.6334 16.5001 11 16.5001C8.61672 16.5001 6.47505 15.8709 4.57505 14.6126C2.67505 13.3543 1.25005 11.7168 0.300049 9.7001C0.250049 9.61677 0.216715 9.5126 0.200049 9.3876C0.183382 9.2626 0.175049 9.13343 0.175049 9.0001C0.175049 8.86677 0.183382 8.74176 0.200049 8.6251C0.216715 8.50843 0.250049 8.40843 0.300049 8.3251C0.650049 7.5751 1.06672 6.88343 1.55005 6.2501C2.03338 5.61676 2.56672 5.03343 3.15005 4.5001L1.07505 2.4001C0.891716 2.21676 0.800049 1.9876 0.800049 1.7126C0.800049 1.4376 0.900049 1.2001 1.10005 1.0001C1.28338 0.816764 1.51672 0.725098 1.80005 0.725098C2.08338 0.725098 2.31672 0.816764 2.50005 1.0001L19.5 18.0001C19.6834 18.1834 19.7792 18.4126 19.7875 18.6876C19.7959 18.9626 19.7001 19.2001 19.5 19.4001C19.3167 19.5834 19.0834 19.6751 18.8 19.6751C18.5167 19.6751 18.2834 19.5834 18.1 19.4001ZM4.55005 5.9001C4.06672 6.33343 3.62505 6.80843 3.22505 7.3251C2.82505 7.84176 2.48338 8.4001 2.20005 9.0001C3.03338 10.6834 4.22922 12.0209 5.78755 13.0126C7.34588 14.0043 9.08338 14.5001 11 14.5001C11.3334 14.5001 11.6584 14.4793 11.975 14.4376C12.2917 14.3959 12.6167 14.3501 12.95 14.3001L12.05 13.3501C11.8667 13.4001 11.6917 13.4376 11.525 13.4626C11.3584 13.4876 11.1834 13.5001 11 13.5001C9.75005 13.5001 8.68755 13.0626 7.81255 12.1876C6.93755 11.3126 6.50005 10.2501 6.50005 9.0001C6.50005 8.81676 6.51255 8.64176 6.53755 8.4751C6.56255 8.30843 6.60005 8.13343 6.65005 7.9501L4.55005 5.9001Z" fill="#A8A8A8"/>
</svg>
